<mxfile host="app.diagrams.net" modified="2021-02-01T19:36:40.795Z" agent="5.0 (Macintosh; Intel Mac OS X 10_15_6) AppleWebKit/605.1.15 (KHTML, like Gecko) Version/14.0.1 Safari/605.1.15" etag="JHVlDsDvPY0MI2NmwNDo" version="14.2.7" type="github" pages="3">
  <diagram name="Page-1" id="2ca16b54-16f6-2749-3443-fa8db7711227">
    <mxGraphModel dx="786" dy="1370" grid="1" gridSize="10" guides="1" tooltips="1" connect="1" arrows="1" fold="1" page="1" pageScale="1" pageWidth="1100" pageHeight="850" background="#ffffff" math="0" shadow="0">
      <root>
        <mxCell id="0" />
        <mxCell id="1" parent="0" />
        <mxCell id="2ed32ef02a7f4228-1" value="&lt;div style=&quot;box-sizing: border-box ; width: 100% ; background: #e4e4e4 ; padding: 2px&quot;&gt;rent_companies ( &lt;font color=&quot;#0066cc&quot;&gt;compañias&lt;/font&gt; )&lt;/div&gt;&lt;table style=&quot;width: 100% ; font-size: 1em&quot; cellpadding=&quot;2&quot; cellspacing=&quot;0&quot;&gt;&lt;tbody&gt;&lt;tr&gt;&lt;td&gt;PK&lt;/td&gt;&lt;td&gt;company_id&lt;/td&gt;&lt;/tr&gt;&lt;tr&gt;&lt;td&gt;&lt;br&gt;&lt;/td&gt;&lt;td&gt;name&lt;/td&gt;&lt;/tr&gt;&lt;tr&gt;&lt;td&gt;&lt;/td&gt;&lt;td&gt;email&lt;br&gt;address&lt;br&gt;logo&lt;br&gt;phone&lt;br&gt;steps&lt;br&gt;created_at&lt;br&gt;updated_at&lt;br&gt;&lt;br&gt;&lt;/td&gt;&lt;/tr&gt;&lt;/tbody&gt;&lt;/table&gt;" style="verticalAlign=top;align=left;overflow=fill;html=1;rounded=0;shadow=0;comic=0;labelBackgroundColor=none;strokeWidth=1;fontFamily=Verdana;fontSize=12" parent="1" vertex="1">
          <mxGeometry x="610" y="-425" width="180" height="160" as="geometry" />
        </mxCell>
        <mxCell id="2ed32ef02a7f4228-16" style="edgeStyle=orthogonalEdgeStyle;html=1;labelBackgroundColor=none;startArrow=ERmandOne;endArrow=ERoneToMany;fontFamily=Verdana;fontSize=12;align=left;exitX=0.5;exitY=0;exitDx=0;exitDy=0;exitPerimeter=0;" parent="1" source="2ed32ef02a7f4228-3" target="2ed32ef02a7f4228-4" edge="1">
          <mxGeometry relative="1" as="geometry" />
        </mxCell>
        <mxCell id="2ed32ef02a7f4228-3" value="&lt;div style=&quot;box-sizing: border-box ; width: 100% ; background: #e4e4e4 ; padding: 2px&quot;&gt;rent_models ( &lt;font color=&quot;#003366&quot;&gt;Pisos&lt;/font&gt; )&lt;/div&gt;&lt;table style=&quot;width: 100% ; font-size: 1em&quot; cellpadding=&quot;2&quot; cellspacing=&quot;0&quot;&gt;&lt;tbody&gt;&lt;tr&gt;&lt;td&gt;PK&lt;/td&gt;&lt;td&gt;model_id (&lt;font color=&quot;#003366&quot;&gt;Piso Id&lt;/font&gt;)&lt;/td&gt;&lt;/tr&gt;&lt;tr&gt;&lt;td&gt;FK1&lt;/td&gt;&lt;td&gt;mode_id ( &lt;font color=&quot;#003366&quot;&gt;Tipo reserva ID&lt;/font&gt;)&lt;/td&gt;&lt;/tr&gt;&lt;tr&gt;&lt;td&gt;FK2&lt;/td&gt;&lt;td&gt;company_id ( &lt;font color=&quot;#003366&quot;&gt;compañia&lt;/font&gt;)&lt;br&gt;&lt;/td&gt;&lt;/tr&gt;&lt;tr&gt;&lt;td&gt;&lt;br&gt;&lt;/td&gt;&lt;td&gt;model ( &lt;font color=&quot;#003366&quot;&gt;nombre de piso&lt;/font&gt; )&lt;br&gt;image&lt;br&gt;brand ( nulo)&lt;br&gt;year ( nulo )&lt;br&gt;note ( nulo )&lt;br&gt;createed_at&amp;nbsp;&lt;br&gt;updated_at&lt;/td&gt;&lt;/tr&gt;&lt;/tbody&gt;&lt;/table&gt;&amp;nbsp;" style="verticalAlign=top;align=left;overflow=fill;html=1;rounded=0;shadow=0;comic=0;labelBackgroundColor=none;strokeWidth=1;fontFamily=Verdana;fontSize=12" parent="1" vertex="1">
          <mxGeometry x="105" width="185" height="180" as="geometry" />
        </mxCell>
        <mxCell id="2ed32ef02a7f4228-4" value="&lt;div style=&quot;box-sizing: border-box ; width: 100% ; background: #e4e4e4 ; padding: 2px&quot;&gt;rent_modes ( &lt;font color=&quot;#003366&quot;&gt;Tipo de reserva &lt;/font&gt;)&lt;/div&gt;&lt;table style=&quot;width: 100% ; font-size: 1em&quot; cellpadding=&quot;2&quot; cellspacing=&quot;0&quot;&gt;&lt;tbody&gt;&lt;tr&gt;&lt;td&gt;PK&lt;/td&gt;&lt;td&gt;mode_id&lt;/td&gt;&lt;/tr&gt;&lt;tr&gt;&lt;td&gt;FK1&lt;/td&gt;&lt;td&gt;company_id ( &lt;font color=&quot;#003366&quot;&gt;compañia ID&lt;/font&gt;)&lt;/td&gt;&lt;/tr&gt;&lt;tr&gt;&lt;td&gt;&lt;/td&gt;&lt;td&gt;mode (&lt;font color=&quot;#003366&quot;&gt;&amp;nbsp;&lt;/font&gt;parqueadero&lt;font color=&quot;#003366&quot;&gt; - parking&lt;/font&gt;) (office -&lt;font color=&quot;#003366&quot;&gt;puesto de trabajo)&lt;/font&gt;&lt;/td&gt;&lt;/tr&gt;&lt;tr&gt;&lt;td&gt;&lt;br&gt;&lt;/td&gt;&lt;td&gt;created_at&lt;br&gt;updated_at&lt;/td&gt;&lt;/tr&gt;&lt;/tbody&gt;&lt;/table&gt;" style="verticalAlign=top;align=left;overflow=fill;html=1;rounded=0;shadow=0;comic=0;labelBackgroundColor=none;strokeWidth=1;fontFamily=Verdana;fontSize=12" parent="1" vertex="1">
          <mxGeometry x="60" y="-230" width="320" height="110" as="geometry" />
        </mxCell>
        <mxCell id="2ed32ef02a7f4228-5" value="&lt;div style=&quot;box-sizing: border-box ; width: 100% ; background: #e4e4e4 ; padding: 2px&quot;&gt;rent_offices ( &lt;font color=&quot;#003366&quot;&gt;Sedes&lt;/font&gt; )&lt;/div&gt;&lt;table style=&quot;width: 100% ; font-size: 1em&quot; cellpadding=&quot;2&quot; cellspacing=&quot;0&quot;&gt;&lt;tbody&gt;&lt;tr&gt;&lt;td&gt;PK&lt;/td&gt;&lt;td&gt;office_id&amp;nbsp;&lt;/td&gt;&lt;/tr&gt;&lt;tr&gt;&lt;td&gt;FK1&lt;/td&gt;&lt;td&gt;company_id (&lt;font color=&quot;#003366&quot;&gt;compañia ID&lt;/font&gt;)&lt;/td&gt;&lt;/tr&gt;&lt;tr&gt;&lt;td&gt;&lt;/td&gt;&lt;td&gt;name&lt;br&gt;phone&lt;br&gt;location_gps&lt;br&gt;location_text&lt;br&gt;created_at&lt;br&gt;updated_at&lt;/td&gt;&lt;/tr&gt;&lt;/tbody&gt;&lt;/table&gt;" style="verticalAlign=top;align=left;overflow=fill;html=1;rounded=0;shadow=0;comic=0;labelBackgroundColor=none;strokeWidth=1;fontFamily=Verdana;fontSize=12" parent="1" vertex="1">
          <mxGeometry x="270" y="-410" width="160" height="140" as="geometry" />
        </mxCell>
        <mxCell id="2ed32ef02a7f4228-17" style="edgeStyle=orthogonalEdgeStyle;html=1;entryX=0.5;entryY=0;labelBackgroundColor=none;startArrow=ERmandOne;endArrow=ERoneToMany;fontFamily=Verdana;fontSize=12;align=left;dashed=1;" parent="1" edge="1">
          <mxGeometry relative="1" as="geometry">
            <mxPoint x="550" y="680" as="targetPoint" />
          </mxGeometry>
        </mxCell>
        <mxCell id="5kcmTqTTRJBxtJCU6mKe-61" style="edgeStyle=orthogonalEdgeStyle;rounded=0;orthogonalLoop=1;jettySize=auto;html=1;exitX=0.25;exitY=0;exitDx=0;exitDy=0;entryX=0.004;entryY=0.468;entryDx=0;entryDy=0;entryPerimeter=0;" parent="1" source="2ed32ef02a7f4228-9" target="5kcmTqTTRJBxtJCU6mKe-10" edge="1">
          <mxGeometry relative="1" as="geometry" />
        </mxCell>
        <mxCell id="2ed32ef02a7f4228-9" value="&lt;div style=&quot;box-sizing: border-box ; width: 100% ; background: #e4e4e4 ; padding: 2px&quot;&gt;users&lt;/div&gt;&lt;table style=&quot;width: 100% ; font-size: 1em&quot; cellpadding=&quot;2&quot; cellspacing=&quot;0&quot;&gt;&lt;tbody&gt;&lt;tr&gt;&lt;td&gt;PK&lt;/td&gt;&lt;td&gt;user_id&lt;/td&gt;&lt;/tr&gt;&lt;tr&gt;&lt;td&gt;FK1&lt;/td&gt;&lt;td&gt;&lt;br&gt;&lt;/td&gt;&lt;/tr&gt;&lt;tr&gt;&lt;td&gt;&lt;/td&gt;&lt;td&gt;&lt;br&gt;&lt;/td&gt;&lt;/tr&gt;&lt;/tbody&gt;&lt;/table&gt;" style="verticalAlign=top;align=left;overflow=fill;html=1;rounded=0;shadow=0;comic=0;labelBackgroundColor=none;strokeWidth=1;fontFamily=Verdana;fontSize=12" parent="1" vertex="1">
          <mxGeometry x="1080" y="-240" width="170" height="70" as="geometry" />
        </mxCell>
        <mxCell id="2ed32ef02a7f4228-12" value="&lt;div style=&quot;box-sizing: border-box ; width: 100% ; background: #e4e4e4 ; padding: 2px&quot;&gt;rent_vehicles ( &lt;font color=&quot;#003366&quot;&gt;Referencias&lt;/font&gt; )&amp;nbsp;&lt;/div&gt;&lt;table style=&quot;width: 100% ; font-size: 1em&quot; cellpadding=&quot;2&quot; cellspacing=&quot;0&quot;&gt;&lt;tbody&gt;&lt;tr&gt;&lt;td&gt;PK&lt;/td&gt;&lt;td&gt;vehicle_id (&lt;font color=&quot;#003366&quot;&gt;referencia ID&lt;/font&gt;)&lt;/td&gt;&lt;/tr&gt;&lt;tr&gt;&lt;td&gt;FK1&lt;/td&gt;&lt;td&gt;company_id ( &lt;font color=&quot;#003366&quot;&gt;Compañia ID&lt;/font&gt;)&lt;/td&gt;&lt;/tr&gt;&lt;tr&gt;&lt;td&gt;FK2&lt;/td&gt;&lt;td&gt;model_id ( &lt;font color=&quot;#003366&quot;&gt;Piso ID&lt;/font&gt;)&amp;nbsp;&lt;/td&gt;&lt;/tr&gt;&lt;tr&gt;&lt;td&gt;&lt;br&gt;&lt;/td&gt;&lt;td&gt;number_plate ( &lt;font color=&quot;#003366&quot;&gt;nombre referencia&lt;/font&gt;)&lt;br&gt;&lt;/td&gt;&lt;/tr&gt;&lt;tr&gt;&lt;td&gt;&lt;br&gt;&lt;/td&gt;&lt;td&gt;status&amp;nbsp;&amp;nbsp;&lt;br&gt;&lt;/td&gt;&lt;/tr&gt;&lt;tr&gt;&lt;td&gt;&lt;br&gt;&lt;/td&gt;&lt;td&gt;created_at&lt;br&gt;updated_at&lt;/td&gt;&lt;/tr&gt;&lt;/tbody&gt;&lt;/table&gt;" style="verticalAlign=top;align=left;overflow=fill;html=1;rounded=0;shadow=0;comic=0;labelBackgroundColor=none;strokeWidth=1;fontFamily=Verdana;fontSize=12" parent="1" vertex="1">
          <mxGeometry x="90" y="290" width="230" height="140" as="geometry" />
        </mxCell>
        <mxCell id="2ed32ef02a7f4228-13" value="" style="edgeStyle=orthogonalEdgeStyle;html=1;endArrow=ERoneToMany;startArrow=ERmandOne;labelBackgroundColor=none;fontFamily=Verdana;fontSize=12;align=left;exitX=-0.028;exitY=0.319;exitDx=0;exitDy=0;exitPerimeter=0;entryX=1;entryY=0.75;entryDx=0;entryDy=0;" parent="1" source="2ed32ef02a7f4228-1" target="2ed32ef02a7f4228-5" edge="1">
          <mxGeometry width="100" height="100" relative="1" as="geometry">
            <mxPoint x="350" y="-380" as="sourcePoint" />
            <mxPoint x="500" y="-310" as="targetPoint" />
            <Array as="points">
              <mxPoint x="585" y="-380" />
              <mxPoint x="500" y="-380" />
              <mxPoint x="500" y="-305" />
            </Array>
          </mxGeometry>
        </mxCell>
        <mxCell id="5kcmTqTTRJBxtJCU6mKe-1" value="&lt;div style=&quot;box-sizing: border-box ; width: 100% ; background: #e4e4e4 ; padding: 2px&quot;&gt;rent_companies_restrictions ( &lt;font color=&quot;#003366&quot;&gt;Restricciones de&amp;nbsp;compañía&lt;/font&gt;&amp;nbsp;)&amp;nbsp;&lt;/div&gt;&lt;table style=&quot;width: 100% ; font-size: 1em&quot; cellpadding=&quot;2&quot; cellspacing=&quot;0&quot;&gt;&lt;tbody&gt;&lt;tr&gt;&lt;td&gt;PK&lt;/td&gt;&lt;td&gt;company_id (&lt;font color=&quot;#003366&quot;&gt;Compañia ID&lt;/font&gt;)&lt;/td&gt;&lt;/tr&gt;&lt;tr&gt;&lt;td&gt;&lt;br&gt;&lt;/td&gt;&lt;td&gt;parameter_id (&amp;nbsp;&lt;font color=&quot;#003366&quot;&gt;Restricción&amp;nbsp;ID&lt;/font&gt;)&lt;br&gt;value&lt;/td&gt;&lt;/tr&gt;&lt;tr&gt;&lt;td&gt;&lt;br&gt;&lt;/td&gt;&lt;td&gt;created_at &amp;nbsp;&lt;/td&gt;&lt;/tr&gt;&lt;tr&gt;&lt;td&gt;&lt;br&gt;&lt;/td&gt;&lt;td&gt;updated_at&amp;nbsp;&lt;br&gt;&lt;/td&gt;&lt;/tr&gt;&lt;tr&gt;&lt;td&gt;&lt;br&gt;&lt;/td&gt;&lt;td&gt;&amp;nbsp;&amp;nbsp;&lt;br&gt;&lt;/td&gt;&lt;/tr&gt;&lt;tr&gt;&lt;td&gt;&lt;br&gt;&lt;/td&gt;&lt;td&gt;&lt;br&gt;&lt;br&gt;&lt;/td&gt;&lt;/tr&gt;&lt;/tbody&gt;&lt;/table&gt;" style="verticalAlign=top;align=left;overflow=fill;html=1;rounded=0;shadow=0;comic=0;labelBackgroundColor=none;strokeWidth=1;fontFamily=Verdana;fontSize=12" parent="1" vertex="1">
          <mxGeometry x="380" y="-670" width="280" height="110" as="geometry" />
        </mxCell>
        <mxCell id="5kcmTqTTRJBxtJCU6mKe-2" value="&lt;div style=&quot;box-sizing: border-box ; width: 100% ; background: #e4e4e4 ; padding: 2px&quot;&gt;rent_managers ( &lt;font color=&quot;#003366&quot;&gt;Agentes&lt;/font&gt;&amp;nbsp;)&amp;nbsp;&lt;/div&gt;&lt;table style=&quot;width: 100% ; font-size: 1em&quot; cellpadding=&quot;2&quot; cellspacing=&quot;0&quot;&gt;&lt;tbody&gt;&lt;tr&gt;&lt;td&gt;PK1&lt;/td&gt;&lt;td&gt;user_id (&lt;font color=&quot;#003366&quot;&gt;Usuario&lt;/font&gt;&amp;nbsp;&lt;font color=&quot;#003366&quot;&gt;&amp;nbsp;ID&lt;/font&gt;)&lt;/td&gt;&lt;/tr&gt;&lt;tr&gt;&lt;td&gt;PK2&lt;br&gt;&lt;/td&gt;&lt;td&gt;company_id ( &lt;font color=&quot;#003366&quot;&gt;Compañia&amp;nbsp;ID&lt;/font&gt;)&lt;br&gt;&lt;/td&gt;&lt;/tr&gt;&lt;tr&gt;&lt;td&gt;&lt;br&gt;&lt;/td&gt;&lt;td&gt;created_at &amp;nbsp;&lt;/td&gt;&lt;/tr&gt;&lt;tr&gt;&lt;td&gt;&lt;br&gt;&lt;/td&gt;&lt;td&gt;updated_at&amp;nbsp;&lt;br&gt;&lt;/td&gt;&lt;/tr&gt;&lt;tr&gt;&lt;td&gt;&lt;br&gt;&lt;/td&gt;&lt;td&gt;&amp;nbsp;&amp;nbsp;&lt;br&gt;&lt;/td&gt;&lt;/tr&gt;&lt;tr&gt;&lt;td&gt;&lt;br&gt;&lt;/td&gt;&lt;td&gt;&lt;br&gt;&lt;br&gt;&lt;/td&gt;&lt;/tr&gt;&lt;/tbody&gt;&lt;/table&gt;" style="verticalAlign=top;align=left;overflow=fill;html=1;rounded=0;shadow=0;comic=0;labelBackgroundColor=none;strokeWidth=1;fontFamily=Verdana;fontSize=12" parent="1" vertex="1">
          <mxGeometry x="770" y="-660" width="280" height="110" as="geometry" />
        </mxCell>
        <mxCell id="5kcmTqTTRJBxtJCU6mKe-3" value="&lt;div style=&quot;box-sizing: border-box ; width: 100% ; background: #e4e4e4 ; padding: 2px&quot;&gt;&lt;font color=&quot;#990000&quot;&gt;rent_models_parameters&lt;/font&gt;&amp;nbsp;&lt;/div&gt;&lt;table style=&quot;width: 100% ; font-size: 1em&quot; cellpadding=&quot;2&quot; cellspacing=&quot;0&quot;&gt;&lt;tbody&gt;&lt;tr&gt;&lt;td&gt;FK&lt;/td&gt;&lt;td&gt;model_id&amp;nbsp;&lt;/td&gt;&lt;/tr&gt;&lt;tr&gt;&lt;td&gt;&lt;br&gt;&lt;/td&gt;&lt;td&gt;value&lt;/td&gt;&lt;/tr&gt;&lt;tr&gt;&lt;td&gt;&lt;br&gt;&lt;/td&gt;&lt;td&gt;parameter_id&amp;nbsp;&amp;nbsp;&lt;/td&gt;&lt;/tr&gt;&lt;tr&gt;&lt;td&gt;&lt;br&gt;&lt;/td&gt;&lt;td&gt;created_at&lt;br&gt;updated_at&lt;/td&gt;&lt;/tr&gt;&lt;tr&gt;&lt;td&gt;&lt;br&gt;&lt;/td&gt;&lt;td&gt;&amp;nbsp;&amp;nbsp;&lt;br&gt;&lt;/td&gt;&lt;/tr&gt;&lt;tr&gt;&lt;td&gt;&lt;br&gt;&lt;/td&gt;&lt;td&gt;&lt;br&gt;&lt;br&gt;&lt;/td&gt;&lt;/tr&gt;&lt;/tbody&gt;&lt;/table&gt;" style="verticalAlign=top;align=left;overflow=fill;html=1;rounded=0;shadow=0;comic=0;labelBackgroundColor=none;strokeWidth=1;fontFamily=Verdana;fontSize=12;strokeColor=#FF0F0F;" parent="1" vertex="1">
          <mxGeometry x="530" y="350" width="280" height="110" as="geometry" />
        </mxCell>
        <mxCell id="5kcmTqTTRJBxtJCU6mKe-9" style="edgeStyle=orthogonalEdgeStyle;html=1;labelBackgroundColor=none;startArrow=ERmandOne;endArrow=ERoneToMany;fontFamily=Verdana;fontSize=12;align=left;" parent="1" source="2ed32ef02a7f4228-12" target="2ed32ef02a7f4228-3" edge="1">
          <mxGeometry relative="1" as="geometry">
            <mxPoint x="208" y="230" as="sourcePoint" />
            <mxPoint x="100" y="250" as="targetPoint" />
            <Array as="points">
              <mxPoint x="208" y="250" />
              <mxPoint x="198" y="250" />
            </Array>
          </mxGeometry>
        </mxCell>
        <mxCell id="5kcmTqTTRJBxtJCU6mKe-10" value="&lt;div style=&quot;box-sizing: border-box ; width: 100% ; background: #e4e4e4 ; padding: 2px&quot;&gt;rent_reservations ( &lt;font color=&quot;#003366&quot;&gt;Reservaciones&lt;/font&gt;&amp;nbsp;)&amp;nbsp;&lt;/div&gt;&lt;table style=&quot;width: 100% ; font-size: 1em&quot; cellpadding=&quot;2&quot; cellspacing=&quot;0&quot;&gt;&lt;tbody&gt;&lt;tr&gt;&lt;td&gt;PK&lt;/td&gt;&lt;td&gt;reservation_id (&lt;font color=&quot;#003366&quot;&gt;Reservación ID&lt;/font&gt;)&lt;/td&gt;&lt;/tr&gt;&lt;tr&gt;&lt;td&gt;FK1&lt;/td&gt;&lt;td&gt;community_id ( &lt;font color=&quot;#003366&quot;&gt;Comunidad ID&lt;/font&gt;)&lt;/td&gt;&lt;/tr&gt;&lt;tr&gt;&lt;td&gt;FK2&lt;/td&gt;&lt;td&gt;company_id&amp;nbsp;( &lt;font color=&quot;#003366&quot;&gt;Piso ID&lt;/font&gt;)&amp;nbsp;&lt;/td&gt;&lt;/tr&gt;&lt;tr&gt;&lt;td&gt;&lt;br&gt;&lt;/td&gt;&lt;td&gt;vehicle_id ( &lt;font color=&quot;#003366&quot;&gt;Referencia ID&lt;/font&gt;)&lt;br&gt;&lt;/td&gt;&lt;/tr&gt;&lt;tr&gt;&lt;td&gt;&lt;br&gt;&lt;/td&gt;&lt;td&gt;user_id&amp;nbsp;&amp;nbsp;&lt;br&gt;&lt;/td&gt;&lt;/tr&gt;&lt;tr&gt;&lt;td&gt;&lt;br&gt;&lt;/td&gt;&lt;td&gt;pick_up_office_id (&lt;font color=&quot;#003366&quot;&gt; Sede ID &lt;/font&gt;)&lt;br&gt;return_office_id (&lt;font color=&quot;#003366&quot;&gt;Sede ID &lt;/font&gt;)&amp;nbsp;&lt;br&gt;pick_date ( &lt;font color=&quot;#003366&quot;&gt;inicio reserva&lt;/font&gt; )&lt;br&gt;return_date (&lt;font color=&quot;#003366&quot;&gt; final reserva&lt;/font&gt; )&lt;br&gt;status&lt;br&gt;created_at&amp;nbsp;&lt;br&gt;updated_at&lt;br&gt;&lt;br&gt;&lt;/td&gt;&lt;/tr&gt;&lt;/tbody&gt;&lt;/table&gt;" style="verticalAlign=top;align=left;overflow=fill;html=1;rounded=0;shadow=0;comic=0;labelBackgroundColor=none;strokeWidth=1;fontFamily=Verdana;fontSize=12" parent="1" vertex="1">
          <mxGeometry x="520" y="40" width="237.5" height="220" as="geometry" />
        </mxCell>
        <mxCell id="5kcmTqTTRJBxtJCU6mKe-56" style="edgeStyle=elbowEdgeStyle;html=1;labelBackgroundColor=none;startArrow=ERmandOne;endArrow=ERoneToMany;fontFamily=Verdana;fontSize=12;align=left;exitX=0;exitY=0.25;exitDx=0;exitDy=0;entryX=1;entryY=0.25;entryDx=0;entryDy=0;elbow=vertical;" parent="1" source="5kcmTqTTRJBxtJCU6mKe-10" target="2ed32ef02a7f4228-12" edge="1">
          <mxGeometry relative="1" as="geometry">
            <mxPoint x="240" y="405" as="sourcePoint" />
            <mxPoint x="196" y="355" as="targetPoint" />
          </mxGeometry>
        </mxCell>
        <mxCell id="5kcmTqTTRJBxtJCU6mKe-57" style="edgeStyle=orthogonalEdgeStyle;html=1;dashed=1;labelBackgroundColor=none;startArrow=ERmandOne;endArrow=ERoneToMany;fontFamily=Verdana;fontSize=12;align=left;exitX=0.25;exitY=1;exitDx=0;exitDy=0;" parent="1" source="2ed32ef02a7f4228-1" target="5kcmTqTTRJBxtJCU6mKe-10" edge="1">
          <mxGeometry relative="1" as="geometry">
            <mxPoint x="380" y="-55" as="sourcePoint" />
            <mxPoint x="510" y="80" as="targetPoint" />
          </mxGeometry>
        </mxCell>
        <mxCell id="5kcmTqTTRJBxtJCU6mKe-58" style="edgeStyle=orthogonalEdgeStyle;html=1;dashed=1;labelBackgroundColor=none;startArrow=ERmandOne;endArrow=ERoneToMany;fontFamily=Verdana;fontSize=12;align=left;exitX=0.75;exitY=1;exitDx=0;exitDy=0;entryX=0;entryY=0;entryDx=0;entryDy=0;fontStyle=1" parent="1" source="2ed32ef02a7f4228-5" target="5kcmTqTTRJBxtJCU6mKe-10" edge="1">
          <mxGeometry relative="1" as="geometry">
            <mxPoint x="260" y="-20" as="sourcePoint" />
            <mxPoint x="498.79999999999995" y="270" as="targetPoint" />
            <Array as="points">
              <mxPoint x="390" y="-80" />
              <mxPoint x="520" y="-80" />
            </Array>
          </mxGeometry>
        </mxCell>
        <mxCell id="5kcmTqTTRJBxtJCU6mKe-59" value="&lt;div style=&quot;box-sizing: border-box ; width: 100% ; background: #e4e4e4 ; padding: 2px&quot;&gt;communities ( Comunidades&lt;font color=&quot;#003366&quot;&gt;&amp;nbsp;&lt;/font&gt;)&lt;/div&gt;&lt;table style=&quot;width: 100% ; font-size: 1em&quot; cellpadding=&quot;2&quot; cellspacing=&quot;0&quot;&gt;&lt;tbody&gt;&lt;tr&gt;&lt;td&gt;PK&lt;/td&gt;&lt;td&gt;id&lt;/td&gt;&lt;/tr&gt;&lt;tr&gt;&lt;td&gt;FK1&lt;/td&gt;&lt;td&gt;name ( &lt;font color=&quot;#003366&quot;&gt;compañia ID&lt;/font&gt;)&lt;/td&gt;&lt;/tr&gt;&lt;tr&gt;&lt;td&gt;&lt;/td&gt;&lt;td&gt;created_at&lt;br&gt;&lt;/td&gt;&lt;/tr&gt;&lt;tr&gt;&lt;td&gt;&lt;br&gt;&lt;/td&gt;&lt;td&gt;updated_at&lt;br&gt;&lt;br&gt;&lt;/td&gt;&lt;/tr&gt;&lt;/tbody&gt;&lt;/table&gt;" style="verticalAlign=top;align=left;overflow=fill;html=1;rounded=0;shadow=0;comic=0;labelBackgroundColor=none;strokeWidth=1;fontFamily=Verdana;fontSize=12" parent="1" vertex="1">
          <mxGeometry x="710" y="-220" width="320" height="100" as="geometry" />
        </mxCell>
        <mxCell id="5kcmTqTTRJBxtJCU6mKe-60" style="edgeStyle=orthogonalEdgeStyle;html=1;dashed=1;labelBackgroundColor=none;startArrow=ERmandOne;endArrow=ERoneToMany;fontFamily=Verdana;fontSize=12;align=left;exitX=0;exitY=0.5;exitDx=0;exitDy=0;entryX=0.25;entryY=0;entryDx=0;entryDy=0;" parent="1" source="5kcmTqTTRJBxtJCU6mKe-59" target="5kcmTqTTRJBxtJCU6mKe-10" edge="1">
          <mxGeometry relative="1" as="geometry">
            <mxPoint x="645" y="-275" as="sourcePoint" />
            <mxPoint x="648.8" y="50" as="targetPoint" />
          </mxGeometry>
        </mxCell>
        <mxCell id="5kcmTqTTRJBxtJCU6mKe-62" value="&lt;div style=&quot;box-sizing: border-box ; width: 100% ; background: #e4e4e4 ; padding: 2px&quot;&gt;rent_strikes ( &lt;font color=&quot;#003366&quot;&gt;amonestaciones&lt;/font&gt;&amp;nbsp;)&amp;nbsp;&lt;/div&gt;&lt;table style=&quot;width: 100% ; font-size: 1em&quot; cellpadding=&quot;2&quot; cellspacing=&quot;0&quot;&gt;&lt;tbody&gt;&lt;tr&gt;&lt;td&gt;PK&lt;/td&gt;&lt;td&gt;strike_id (&lt;font color=&quot;#003366&quot;&gt;amonestación ID&lt;/font&gt;)&lt;/td&gt;&lt;/tr&gt;&lt;tr&gt;&lt;td&gt;FK1&lt;/td&gt;&lt;td&gt;user_id ( &lt;font color=&quot;#003366&quot;&gt;Comunidad ID&lt;/font&gt;)&lt;/td&gt;&lt;/tr&gt;&lt;tr&gt;&lt;td&gt;FK2&lt;/td&gt;&lt;td&gt;company_id&amp;nbsp;( &lt;font color=&quot;#003366&quot;&gt;Piso ID&lt;/font&gt;)&amp;nbsp;&lt;/td&gt;&lt;/tr&gt;&lt;tr&gt;&lt;td&gt;FK3&lt;br&gt;&lt;/td&gt;&lt;td&gt;reservation_id ( Reservación&lt;font color=&quot;#003366&quot;&gt;&amp;nbsp;ID&lt;/font&gt;)&lt;br&gt;&lt;/td&gt;&lt;/tr&gt;&lt;tr&gt;&lt;td&gt;&lt;br&gt;&lt;/td&gt;&lt;td&gt;&amp;nbsp; notes&lt;br&gt;&lt;/td&gt;&lt;/tr&gt;&lt;tr&gt;&lt;td&gt;&lt;br&gt;&lt;/td&gt;&lt;td&gt;&amp;nbsp;created_at&lt;br&gt;updated_at&amp;nbsp;&lt;br&gt;&amp;nbsp;&lt;br&gt;&lt;br&gt;&lt;/td&gt;&lt;/tr&gt;&lt;/tbody&gt;&lt;/table&gt;" style="verticalAlign=top;align=left;overflow=fill;html=1;rounded=0;shadow=0;comic=0;labelBackgroundColor=none;strokeWidth=1;fontFamily=Verdana;fontSize=12" parent="1" vertex="1">
          <mxGeometry x="1110" y="-50" width="237.5" height="150" as="geometry" />
        </mxCell>
        <mxCell id="5kcmTqTTRJBxtJCU6mKe-64" style="edgeStyle=orthogonalEdgeStyle;html=1;dashed=1;labelBackgroundColor=none;startArrow=ERmandOne;endArrow=ERoneToMany;fontFamily=Verdana;fontSize=12;align=left;exitX=0.5;exitY=1;exitDx=0;exitDy=0;entryX=0.5;entryY=0;entryDx=0;entryDy=0;" parent="1" source="2ed32ef02a7f4228-9" target="5kcmTqTTRJBxtJCU6mKe-62" edge="1">
          <mxGeometry relative="1" as="geometry">
            <mxPoint x="1190.63" y="-130" as="sourcePoint" />
            <mxPoint x="1060.005" y="80" as="targetPoint" />
          </mxGeometry>
        </mxCell>
        <mxCell id="5kcmTqTTRJBxtJCU6mKe-67" style="edgeStyle=orthogonalEdgeStyle;html=1;dashed=1;labelBackgroundColor=none;startArrow=ERmandOne;endArrow=ERoneToMany;fontFamily=Verdana;fontSize=12;align=left;entryX=1;entryY=0.25;entryDx=0;entryDy=0;exitX=0.75;exitY=0;exitDx=0;exitDy=0;" parent="1" source="5kcmTqTTRJBxtJCU6mKe-62" target="2ed32ef02a7f4228-1" edge="1">
          <mxGeometry relative="1" as="geometry">
            <mxPoint x="1050" y="-80" as="sourcePoint" />
            <mxPoint x="780" y="-50" as="targetPoint" />
            <Array as="points">
              <mxPoint x="1288" y="-80" />
              <mxPoint x="1050" y="-80" />
              <mxPoint x="1050" y="-405" />
              <mxPoint x="790" y="-405" />
            </Array>
          </mxGeometry>
        </mxCell>
        <mxCell id="5kcmTqTTRJBxtJCU6mKe-68" style="edgeStyle=orthogonalEdgeStyle;html=1;dashed=1;labelBackgroundColor=none;startArrow=ERmandOne;endArrow=ERoneToMany;fontFamily=Verdana;fontSize=12;align=left;exitX=0;exitY=0.5;exitDx=0;exitDy=0;entryX=0.996;entryY=0.18;entryDx=0;entryDy=0;entryPerimeter=0;" parent="1" source="5kcmTqTTRJBxtJCU6mKe-62" target="5kcmTqTTRJBxtJCU6mKe-10" edge="1">
          <mxGeometry relative="1" as="geometry">
            <mxPoint x="1080" y="240" as="sourcePoint" />
            <mxPoint x="510" y="410" as="targetPoint" />
            <Array as="points">
              <mxPoint x="940" y="30" />
              <mxPoint x="940" y="90" />
              <mxPoint x="757" y="90" />
            </Array>
          </mxGeometry>
        </mxCell>
        <mxCell id="5kcmTqTTRJBxtJCU6mKe-69" style="edgeStyle=elbowEdgeStyle;html=1;dashed=1;labelBackgroundColor=none;startArrow=ERmandOne;endArrow=ERoneToMany;fontFamily=Verdana;fontSize=12;align=left;exitX=0;exitY=0.5;exitDx=0;exitDy=0;entryX=0.464;entryY=-0.036;entryDx=0;entryDy=0;fontStyle=1;entryPerimeter=0;fillColor=#f8cecc;strokeColor=#b85450;elbow=vertical;" parent="1" source="2ed32ef02a7f4228-1" target="2ed32ef02a7f4228-4" edge="1">
          <mxGeometry relative="1" as="geometry">
            <mxPoint x="400" y="-260" as="sourcePoint" />
            <mxPoint x="530" y="50" as="targetPoint" />
          </mxGeometry>
        </mxCell>
        <mxCell id="q5fo1UJMpCjIxwznRCNQ-1" value="" style="edgeStyle=elbowEdgeStyle;html=1;endArrow=ERoneToMany;startArrow=ERmandOne;labelBackgroundColor=none;fontFamily=Verdana;fontSize=12;align=left;exitX=0;exitY=0;exitDx=0;exitDy=0;entryX=-0.013;entryY=0.346;entryDx=0;entryDy=0;entryPerimeter=0;elbow=vertical;" parent="1" source="2ed32ef02a7f4228-1" target="2ed32ef02a7f4228-12" edge="1">
          <mxGeometry width="100" height="100" relative="1" as="geometry">
            <mxPoint x="484.96000000000004" y="-48.960000000000036" as="sourcePoint" />
            <mxPoint x="330" y="40" as="targetPoint" />
          </mxGeometry>
        </mxCell>
        <mxCell id="q5fo1UJMpCjIxwznRCNQ-2" value="" style="edgeStyle=elbowEdgeStyle;html=1;endArrow=ERoneToMany;startArrow=ERmandOne;labelBackgroundColor=none;fontFamily=Verdana;fontSize=12;align=left;entryX=1;entryY=0.5;entryDx=0;entryDy=0;elbow=vertical;" parent="1" source="2ed32ef02a7f4228-1" target="2ed32ef02a7f4228-3" edge="1">
          <mxGeometry width="100" height="100" relative="1" as="geometry">
            <mxPoint x="600" y="-435" as="sourcePoint" />
            <mxPoint x="97.00999999999999" y="348.44000000000005" as="targetPoint" />
          </mxGeometry>
        </mxCell>
        <mxCell id="q5fo1UJMpCjIxwznRCNQ-3" value="&lt;div style=&quot;box-sizing: border-box ; width: 100% ; background: #e4e4e4 ; padding: 2px&quot;&gt;rent_vahicles_loction&amp;nbsp;&lt;/div&gt;&lt;table style=&quot;width: 100% ; font-size: 1em&quot; cellpadding=&quot;2&quot; cellspacing=&quot;0&quot;&gt;&lt;tbody&gt;&lt;tr&gt;&lt;td&gt;PK&lt;/td&gt;&lt;td&gt;location_id (&lt;font color=&quot;#003366&quot;&gt;Piso Id&lt;/font&gt;)&lt;/td&gt;&lt;/tr&gt;&lt;tr&gt;&lt;td&gt;FK1&lt;/td&gt;&lt;td&gt;vehicle_id ( &lt;font color=&quot;#003366&quot;&gt;Tipo reserva ID&lt;/font&gt;)&lt;/td&gt;&lt;/tr&gt;&lt;tr&gt;&lt;td&gt;FK2&lt;/td&gt;&lt;td&gt;office_id ( &lt;font color=&quot;#003366&quot;&gt;compañia&lt;/font&gt;)&lt;br&gt;&lt;/td&gt;&lt;/tr&gt;&lt;tr&gt;&lt;td&gt;&lt;br&gt;&lt;/td&gt;&lt;td&gt;status&amp;nbsp;&lt;br&gt;now&lt;br&gt;createed_at&amp;nbsp;&lt;br&gt;updated_at&amp;nbsp;&lt;br&gt;&lt;br&gt;&lt;/td&gt;&lt;/tr&gt;&lt;/tbody&gt;&lt;/table&gt;&amp;nbsp;" style="verticalAlign=top;align=left;overflow=fill;html=1;rounded=0;shadow=0;comic=0;labelBackgroundColor=none;strokeWidth=1;fontFamily=Verdana;fontSize=12" parent="1" vertex="1">
          <mxGeometry x="130" y="640" width="210" height="140" as="geometry" />
        </mxCell>
        <mxCell id="q5fo1UJMpCjIxwznRCNQ-4" value="&lt;div style=&quot;box-sizing: border-box ; width: 100% ; background: #e4e4e4 ; padding: 2px&quot;&gt;rent_vehicle_tracing&lt;/div&gt;&lt;table style=&quot;width: 100% ; font-size: 1em&quot; cellpadding=&quot;2&quot; cellspacing=&quot;0&quot;&gt;&lt;tbody&gt;&lt;tr&gt;&lt;td&gt;PK&lt;/td&gt;&lt;td&gt;tracing_id&amp;nbsp;&lt;/td&gt;&lt;/tr&gt;&lt;tr&gt;&lt;td&gt;FK1&lt;/td&gt;&lt;td&gt;vehicle_id&amp;nbsp;&lt;/td&gt;&lt;/tr&gt;&lt;tr&gt;&lt;td&gt;&lt;br&gt;&lt;/td&gt;&lt;td&gt;status &lt;br&gt;&lt;/td&gt;&lt;/tr&gt;&lt;tr&gt;&lt;td&gt;&lt;br&gt;&lt;/td&gt;&lt;td&gt;note&amp;nbsp;&lt;br&gt;createed_at&lt;br&gt;updated_at&amp;nbsp;&lt;br&gt;&lt;br&gt;&lt;/td&gt;&lt;/tr&gt;&lt;/tbody&gt;&lt;/table&gt;&amp;nbsp;" style="verticalAlign=top;align=left;overflow=fill;html=1;rounded=0;shadow=0;comic=0;labelBackgroundColor=none;strokeWidth=1;fontFamily=Verdana;fontSize=12" parent="1" vertex="1">
          <mxGeometry x="92.5" y="500" width="210" height="120" as="geometry" />
        </mxCell>
        <mxCell id="q5fo1UJMpCjIxwznRCNQ-5" style="edgeStyle=elbowEdgeStyle;html=1;labelBackgroundColor=none;startArrow=ERmandOne;endArrow=ERoneToMany;fontFamily=Verdana;fontSize=12;align=left;exitX=0;exitY=0.5;exitDx=0;exitDy=0;elbow=vertical;" parent="1" source="2ed32ef02a7f4228-12" target="q5fo1UJMpCjIxwznRCNQ-4" edge="1">
          <mxGeometry relative="1" as="geometry">
            <mxPoint x="89.99882352941171" y="570" as="sourcePoint" />
            <mxPoint x="79.99882352941171" y="460" as="targetPoint" />
            <Array as="points">
              <mxPoint x="80" y="630" />
            </Array>
          </mxGeometry>
        </mxCell>
        <mxCell id="q5fo1UJMpCjIxwznRCNQ-6" style="edgeStyle=elbowEdgeStyle;html=1;labelBackgroundColor=none;startArrow=ERmandOne;endArrow=ERoneToMany;fontFamily=Verdana;fontSize=12;align=left;exitX=0.75;exitY=1;exitDx=0;exitDy=0;elbow=vertical;entryX=1;entryY=0.25;entryDx=0;entryDy=0;" parent="1" source="2ed32ef02a7f4228-12" target="q5fo1UJMpCjIxwznRCNQ-3" edge="1">
          <mxGeometry relative="1" as="geometry">
            <mxPoint x="360" y="360" as="sourcePoint" />
            <mxPoint x="380" y="530" as="targetPoint" />
            <Array as="points">
              <mxPoint x="270" y="430" />
            </Array>
          </mxGeometry>
        </mxCell>
        <mxCell id="q5fo1UJMpCjIxwznRCNQ-8" value="" style="edgeStyle=elbowEdgeStyle;html=1;endArrow=ERoneToMany;startArrow=ERmandOne;labelBackgroundColor=none;fontFamily=Verdana;fontSize=12;align=left;exitX=0.25;exitY=1;exitDx=0;exitDy=0;elbow=vertical;entryX=0.5;entryY=0;entryDx=0;entryDy=0;" parent="1" source="5kcmTqTTRJBxtJCU6mKe-2" target="2ed32ef02a7f4228-1" edge="1">
          <mxGeometry width="100" height="100" relative="1" as="geometry">
            <mxPoint x="814.96" y="-620" as="sourcePoint" />
            <mxPoint x="700" y="-450" as="targetPoint" />
          </mxGeometry>
        </mxCell>
        <mxCell id="q5fo1UJMpCjIxwznRCNQ-9" value="" style="edgeStyle=elbowEdgeStyle;html=1;endArrow=ERoneToMany;startArrow=ERmandOne;labelBackgroundColor=none;fontFamily=Verdana;fontSize=12;align=left;elbow=vertical;entryX=0.5;entryY=0;entryDx=0;entryDy=0;exitX=0.5;exitY=1;exitDx=0;exitDy=0;" parent="1" source="5kcmTqTTRJBxtJCU6mKe-2" target="2ed32ef02a7f4228-9" edge="1">
          <mxGeometry width="100" height="100" relative="1" as="geometry">
            <mxPoint x="960" y="-490" as="sourcePoint" />
            <mxPoint x="850.28" y="-542.6800000000001" as="targetPoint" />
            <Array as="points">
              <mxPoint x="920" y="-500" />
            </Array>
          </mxGeometry>
        </mxCell>
        <mxCell id="q5fo1UJMpCjIxwznRCNQ-10" value="" style="edgeStyle=elbowEdgeStyle;html=1;endArrow=ERoneToMany;startArrow=ERmandOne;labelBackgroundColor=none;fontFamily=Verdana;fontSize=12;align=left;exitX=0.5;exitY=1;exitDx=0;exitDy=0;elbow=vertical;entryX=0.25;entryY=0;entryDx=0;entryDy=0;" parent="1" source="5kcmTqTTRJBxtJCU6mKe-1" target="2ed32ef02a7f4228-1" edge="1">
          <mxGeometry width="100" height="100" relative="1" as="geometry">
            <mxPoint x="560" y="-550" as="sourcePoint" />
            <mxPoint x="420" y="-425" as="targetPoint" />
          </mxGeometry>
        </mxCell>
        <mxCell id="q5fo1UJMpCjIxwznRCNQ-11" style="edgeStyle=orthogonalEdgeStyle;html=1;labelBackgroundColor=none;startArrow=ERmandOne;endArrow=ERoneToMany;fontFamily=Verdana;fontSize=12;align=left;exitX=0;exitY=0.25;exitDx=0;exitDy=0;entryX=0.75;entryY=1;entryDx=0;entryDy=0;" parent="1" source="5kcmTqTTRJBxtJCU6mKe-3" target="2ed32ef02a7f4228-3" edge="1">
          <mxGeometry relative="1" as="geometry">
            <mxPoint x="380" y="340" as="sourcePoint" />
            <mxPoint x="370" y="230" as="targetPoint" />
            <Array as="points">
              <mxPoint x="400" y="343" />
              <mxPoint x="380" y="343" />
              <mxPoint x="380" y="300" />
              <mxPoint x="320" y="300" />
              <mxPoint x="320" y="230" />
              <mxPoint x="244" y="230" />
            </Array>
          </mxGeometry>
        </mxCell>
      </root>
    </mxGraphModel>
  </diagram>
  <diagram id="QPHTgMrW89rbYTI0sd_7" name="Page-2">
    <mxGraphModel dx="3226" dy="3378" grid="1" gridSize="10" guides="1" tooltips="1" connect="1" arrows="1" fold="1" page="1" pageScale="1" pageWidth="827" pageHeight="1169" math="0" shadow="0">
      <root>
        <mxCell id="bmyZmvMGDNsNkP8Xa65y-0" />
        <mxCell id="bmyZmvMGDNsNkP8Xa65y-1" parent="bmyZmvMGDNsNkP8Xa65y-0" />
        <mxCell id="zG-87JeJtZ8VCarZ_aze-0" value="&lt;div style=&quot;box-sizing: border-box ; width: 100% ; background: #e4e4e4 ; padding: 2px&quot;&gt;rent_companies ( &lt;font color=&quot;#0066cc&quot;&gt;compañias&lt;/font&gt; )&lt;/div&gt;&lt;table style=&quot;width: 100% ; font-size: 1em&quot; cellpadding=&quot;2&quot; cellspacing=&quot;0&quot;&gt;&lt;tbody&gt;&lt;tr&gt;&lt;td&gt;PK&lt;/td&gt;&lt;td&gt;company_id&lt;/td&gt;&lt;/tr&gt;&lt;tr&gt;&lt;td&gt;&lt;br&gt;&lt;/td&gt;&lt;td&gt;name&lt;/td&gt;&lt;/tr&gt;&lt;tr&gt;&lt;td&gt;&lt;/td&gt;&lt;td&gt;email&lt;br&gt;address&lt;br&gt;logo&lt;br&gt;phone&lt;br&gt;steps&lt;br&gt;created_at&lt;br&gt;updated_at&lt;br&gt;&lt;br&gt;&lt;/td&gt;&lt;/tr&gt;&lt;/tbody&gt;&lt;/table&gt;" style="verticalAlign=top;align=left;overflow=fill;html=1;rounded=0;shadow=0;comic=0;labelBackgroundColor=none;strokeWidth=1;fontFamily=Verdana;fontSize=12" parent="bmyZmvMGDNsNkP8Xa65y-1" vertex="1">
          <mxGeometry x="-110" y="-1245" width="180" height="160" as="geometry" />
        </mxCell>
        <mxCell id="W7QfxpLX5cAvcP0KsW8M-0" value="&lt;div style=&quot;box-sizing: border-box ; width: 100% ; background: #e4e4e4 ; padding: 2px&quot;&gt;rent_companies_restrictions ( &lt;font color=&quot;#003366&quot;&gt;Restricciones de&amp;nbsp;compañía&lt;/font&gt;&amp;nbsp;)&amp;nbsp;&lt;/div&gt;&lt;table style=&quot;width: 100% ; font-size: 1em&quot; cellpadding=&quot;2&quot; cellspacing=&quot;0&quot;&gt;&lt;tbody&gt;&lt;tr&gt;&lt;td&gt;PK&lt;/td&gt;&lt;td&gt;company_id (&lt;font color=&quot;#003366&quot;&gt;Compañia ID&lt;/font&gt;)&lt;/td&gt;&lt;/tr&gt;&lt;tr&gt;&lt;td&gt;&lt;br&gt;&lt;/td&gt;&lt;td&gt;parameter_id (&amp;nbsp;&lt;font color=&quot;#003366&quot;&gt;Restricción&amp;nbsp;ID&lt;/font&gt;)&lt;br&gt;value&lt;/td&gt;&lt;/tr&gt;&lt;tr&gt;&lt;td&gt;&lt;br&gt;&lt;/td&gt;&lt;td&gt;created_at &amp;nbsp;&lt;/td&gt;&lt;/tr&gt;&lt;tr&gt;&lt;td&gt;&lt;br&gt;&lt;/td&gt;&lt;td&gt;updated_at&amp;nbsp;&lt;br&gt;&lt;/td&gt;&lt;/tr&gt;&lt;tr&gt;&lt;td&gt;&lt;br&gt;&lt;/td&gt;&lt;td&gt;&amp;nbsp;&amp;nbsp;&lt;br&gt;&lt;/td&gt;&lt;/tr&gt;&lt;tr&gt;&lt;td&gt;&lt;br&gt;&lt;/td&gt;&lt;td&gt;&lt;br&gt;&lt;br&gt;&lt;/td&gt;&lt;/tr&gt;&lt;/tbody&gt;&lt;/table&gt;" style="verticalAlign=top;align=left;overflow=fill;html=1;rounded=0;shadow=0;comic=0;labelBackgroundColor=none;strokeWidth=1;fontFamily=Verdana;fontSize=12" parent="bmyZmvMGDNsNkP8Xa65y-1" vertex="1">
          <mxGeometry x="-490" y="-960" width="360" height="110" as="geometry" />
        </mxCell>
        <mxCell id="Nn9XOWeR_-566G98xo9r-0" value="&lt;div style=&quot;box-sizing: border-box ; width: 100% ; background: #e4e4e4 ; padding: 2px&quot;&gt;users&lt;/div&gt;&lt;table style=&quot;width: 100% ; font-size: 1em&quot; cellpadding=&quot;2&quot; cellspacing=&quot;0&quot;&gt;&lt;tbody&gt;&lt;tr&gt;&lt;td&gt;PK&lt;/td&gt;&lt;td&gt;user_id&lt;/td&gt;&lt;/tr&gt;&lt;tr&gt;&lt;td&gt;FK1&lt;/td&gt;&lt;td&gt;&lt;br&gt;&lt;/td&gt;&lt;/tr&gt;&lt;tr&gt;&lt;td&gt;&lt;/td&gt;&lt;td&gt;&lt;br&gt;&lt;/td&gt;&lt;/tr&gt;&lt;/tbody&gt;&lt;/table&gt;" style="verticalAlign=top;align=left;overflow=fill;html=1;rounded=0;shadow=0;comic=0;labelBackgroundColor=none;strokeWidth=1;fontFamily=Verdana;fontSize=12" parent="bmyZmvMGDNsNkP8Xa65y-1" vertex="1">
          <mxGeometry x="-600" y="-1245" width="170" height="70" as="geometry" />
        </mxCell>
        <mxCell id="Nn9XOWeR_-566G98xo9r-2" style="edgeStyle=elbowEdgeStyle;html=1;labelBackgroundColor=none;startArrow=ERmandOne;endArrow=ERmandOne;fontFamily=Verdana;fontSize=12;align=left;fontStyle=1;fillColor=#f8cecc;strokeColor=#030101;entryX=0.5;entryY=0;entryDx=0;entryDy=0;elbow=vertical;endFill=0;exitX=0;exitY=0.5;exitDx=0;exitDy=0;" parent="bmyZmvMGDNsNkP8Xa65y-1" source="zG-87JeJtZ8VCarZ_aze-0" target="W7QfxpLX5cAvcP0KsW8M-0" edge="1">
          <mxGeometry relative="1" as="geometry">
            <mxPoint x="-120" y="-1230" as="sourcePoint" />
            <mxPoint x="-439.9999999999998" y="-950" as="targetPoint" />
            <Array as="points">
              <mxPoint x="-210" y="-1150" />
            </Array>
          </mxGeometry>
        </mxCell>
        <mxCell id="76GSk2uc0Bq8PNlHWu_F-0" value="&lt;div style=&quot;box-sizing: border-box ; width: 100% ; background: #e4e4e4 ; padding: 2px&quot;&gt;rent_offices ( &lt;font color=&quot;#003366&quot;&gt;Sedes&lt;/font&gt; )&lt;/div&gt;&lt;table style=&quot;width: 100% ; font-size: 1em&quot; cellpadding=&quot;2&quot; cellspacing=&quot;0&quot;&gt;&lt;tbody&gt;&lt;tr&gt;&lt;td&gt;PK&lt;/td&gt;&lt;td&gt;office_id&amp;nbsp;&lt;/td&gt;&lt;/tr&gt;&lt;tr&gt;&lt;td&gt;FK1&lt;/td&gt;&lt;td&gt;company_id (&lt;font color=&quot;#003366&quot;&gt;compañia ID&lt;/font&gt;)&lt;/td&gt;&lt;/tr&gt;&lt;tr&gt;&lt;td&gt;&lt;/td&gt;&lt;td&gt;name&lt;br&gt;phone&lt;br&gt;location_gps&lt;br&gt;location_text&lt;br&gt;created_at&lt;br&gt;updated_at&lt;/td&gt;&lt;/tr&gt;&lt;/tbody&gt;&lt;/table&gt;" style="verticalAlign=top;align=left;overflow=fill;html=1;rounded=0;shadow=0;comic=0;labelBackgroundColor=none;strokeWidth=1;fontFamily=Verdana;fontSize=12" parent="bmyZmvMGDNsNkP8Xa65y-1" vertex="1">
          <mxGeometry x="-100" y="-960" width="160" height="140" as="geometry" />
        </mxCell>
        <mxCell id="76GSk2uc0Bq8PNlHWu_F-1" style="edgeStyle=elbowEdgeStyle;html=1;labelBackgroundColor=none;startArrow=ERmandOne;endArrow=ERoneToMany;fontFamily=Verdana;fontSize=12;align=left;exitX=0.5;exitY=1;exitDx=0;exitDy=0;fontStyle=1;fillColor=#f8cecc;strokeColor=#030101;entryX=0.5;entryY=0;entryDx=0;entryDy=0;elbow=vertical;" parent="bmyZmvMGDNsNkP8Xa65y-1" source="zG-87JeJtZ8VCarZ_aze-0" target="76GSk2uc0Bq8PNlHWu_F-0" edge="1">
          <mxGeometry relative="1" as="geometry">
            <mxPoint x="320" y="-1100" as="sourcePoint" />
            <mxPoint x="-270" y="-950" as="targetPoint" />
          </mxGeometry>
        </mxCell>
        <mxCell id="K6vLY8D_4jLf4asDI1Gj-0" value="&lt;div style=&quot;box-sizing: border-box ; width: 100% ; background: #e4e4e4 ; padding: 2px&quot;&gt;rent_modes ( &lt;font color=&quot;#003366&quot;&gt;Tipo de reserva &lt;/font&gt;)&lt;/div&gt;&lt;table style=&quot;width: 100% ; font-size: 1em&quot; cellpadding=&quot;2&quot; cellspacing=&quot;0&quot;&gt;&lt;tbody&gt;&lt;tr&gt;&lt;td&gt;PK&lt;/td&gt;&lt;td&gt;mode_id&lt;/td&gt;&lt;/tr&gt;&lt;tr&gt;&lt;td&gt;FK1&lt;/td&gt;&lt;td&gt;office_id ( Sede&lt;font color=&quot;#003366&quot;&gt;&amp;nbsp;ID&lt;/font&gt;)&lt;/td&gt;&lt;/tr&gt;&lt;tr&gt;&lt;td&gt;&lt;/td&gt;&lt;td&gt;name (&lt;font color=&quot;#003366&quot;&gt;&amp;nbsp;&lt;/font&gt;parqueadero&lt;font color=&quot;#003366&quot;&gt; - parking&lt;/font&gt;) (office -&lt;font color=&quot;#003366&quot;&gt;puesto de trabajo)&lt;/font&gt;&lt;/td&gt;&lt;/tr&gt;&lt;tr&gt;&lt;td&gt;&lt;br&gt;&lt;/td&gt;&lt;td&gt;created_at&lt;br&gt;updated_at&lt;/td&gt;&lt;/tr&gt;&lt;/tbody&gt;&lt;/table&gt;" style="verticalAlign=top;align=left;overflow=fill;html=1;rounded=0;shadow=0;comic=0;labelBackgroundColor=none;strokeWidth=1;fontFamily=Verdana;fontSize=12" parent="bmyZmvMGDNsNkP8Xa65y-1" vertex="1">
          <mxGeometry x="-215" y="-710" width="390" height="110" as="geometry" />
        </mxCell>
        <mxCell id="K6vLY8D_4jLf4asDI1Gj-1" style="edgeStyle=elbowEdgeStyle;html=1;labelBackgroundColor=none;startArrow=ERmandOne;endArrow=ERoneToMany;fontFamily=Verdana;fontSize=12;align=left;fontStyle=1;fillColor=#f8cecc;strokeColor=#030101;entryX=0.5;entryY=0;entryDx=0;entryDy=0;elbow=vertical;exitX=0.5;exitY=1;exitDx=0;exitDy=0;" parent="bmyZmvMGDNsNkP8Xa65y-1" source="76GSk2uc0Bq8PNlHWu_F-0" target="K6vLY8D_4jLf4asDI1Gj-0" edge="1">
          <mxGeometry relative="1" as="geometry">
            <mxPoint x="50" y="-790" as="sourcePoint" />
            <mxPoint y="-720" as="targetPoint" />
          </mxGeometry>
        </mxCell>
        <mxCell id="S5w8QTy3RacfOPkF_H0v-0" value="&lt;div style=&quot;box-sizing: border-box ; width: 100% ; background: #e4e4e4 ; padding: 2px&quot;&gt;rent_models ( &lt;font color=&quot;#003366&quot;&gt;Pisos&lt;/font&gt; )&lt;/div&gt;&lt;table style=&quot;width: 100% ; font-size: 1em&quot; cellpadding=&quot;2&quot; cellspacing=&quot;0&quot;&gt;&lt;tbody&gt;&lt;tr&gt;&lt;td&gt;PK&lt;/td&gt;&lt;td&gt;model_id (&lt;font color=&quot;#003366&quot;&gt;Piso Id&lt;/font&gt;)&lt;/td&gt;&lt;/tr&gt;&lt;tr&gt;&lt;td&gt;FK1&lt;/td&gt;&lt;td&gt;mode_id ( &lt;font color=&quot;#003366&quot;&gt;Tipo reserva ID&lt;/font&gt;)&lt;/td&gt;&lt;/tr&gt;&lt;tr&gt;&lt;td&gt;&lt;/td&gt;&lt;td&gt;name&amp;nbsp;&lt;/td&gt;&lt;/tr&gt;&lt;tr&gt;&lt;td&gt;&lt;br&gt;&lt;/td&gt;&lt;td&gt;description&lt;br&gt;createed_at&amp;nbsp;&lt;br&gt;updated_at&lt;/td&gt;&lt;/tr&gt;&lt;/tbody&gt;&lt;/table&gt;&amp;nbsp;" style="verticalAlign=top;align=left;overflow=fill;html=1;rounded=0;shadow=0;comic=0;labelBackgroundColor=none;strokeWidth=1;fontFamily=Verdana;fontSize=12" parent="bmyZmvMGDNsNkP8Xa65y-1" vertex="1">
          <mxGeometry x="-121.25" y="-530" width="201.25" height="130" as="geometry" />
        </mxCell>
        <mxCell id="S5w8QTy3RacfOPkF_H0v-1" style="edgeStyle=elbowEdgeStyle;html=1;labelBackgroundColor=none;startArrow=ERmandOne;endArrow=ERoneToMany;fontFamily=Verdana;fontSize=12;align=left;fontStyle=1;fillColor=#f8cecc;strokeColor=#030101;entryX=0.5;entryY=0;entryDx=0;entryDy=0;elbow=vertical;exitX=0.5;exitY=1;exitDx=0;exitDy=0;" parent="bmyZmvMGDNsNkP8Xa65y-1" source="K6vLY8D_4jLf4asDI1Gj-0" target="S5w8QTy3RacfOPkF_H0v-0" edge="1">
          <mxGeometry relative="1" as="geometry">
            <mxPoint x="-20.83" y="-580" as="sourcePoint" />
            <mxPoint x="-20.659999999999997" y="-460" as="targetPoint" />
          </mxGeometry>
        </mxCell>
        <mxCell id="GGgMYoYCZhMItihsB0li-0" value="&lt;div style=&quot;box-sizing: border-box ; width: 100% ; background: #e4e4e4 ; padding: 2px&quot;&gt;rent_vehicles ( &lt;font color=&quot;#003366&quot;&gt;Referencias&lt;/font&gt; )&amp;nbsp;&lt;/div&gt;&lt;table style=&quot;width: 100% ; font-size: 1em&quot; cellpadding=&quot;2&quot; cellspacing=&quot;0&quot;&gt;&lt;tbody&gt;&lt;tr&gt;&lt;td&gt;PK&lt;/td&gt;&lt;td&gt;vehicle_id (&lt;font color=&quot;#003366&quot;&gt;referencia ID&lt;/font&gt;)&lt;/td&gt;&lt;/tr&gt;&lt;tr&gt;&lt;td&gt;FK1&lt;/td&gt;&lt;td&gt;model_id&amp;nbsp;( &lt;font color=&quot;#003366&quot;&gt;Piso ID&lt;/font&gt;)&lt;/td&gt;&lt;/tr&gt;&lt;tr&gt;&lt;td&gt;FK2&lt;/td&gt;&lt;td&gt;number_plate&amp;nbsp;( &lt;font color=&quot;#003366&quot;&gt;nombre referencia&lt;/font&gt;)&amp;nbsp;&lt;/td&gt;&lt;/tr&gt;&lt;tr&gt;&lt;td&gt;&lt;br&gt;&lt;/td&gt;&lt;td&gt;number_plate ( &lt;font color=&quot;#003366&quot;&gt;nombre referencia&lt;/font&gt;)&lt;br&gt;&lt;/td&gt;&lt;/tr&gt;&lt;tr&gt;&lt;td&gt;&lt;br&gt;&lt;/td&gt;&lt;td&gt;&amp;nbsp;created_at&lt;br&gt;&lt;/td&gt;&lt;/tr&gt;&lt;tr&gt;&lt;td&gt;&lt;br&gt;&lt;/td&gt;&lt;td&gt;updated_at&lt;br&gt;&lt;br&gt;&lt;/td&gt;&lt;/tr&gt;&lt;/tbody&gt;&lt;/table&gt;" style="verticalAlign=top;align=left;overflow=fill;html=1;rounded=0;shadow=0;comic=0;labelBackgroundColor=none;strokeWidth=1;fontFamily=Verdana;fontSize=12" parent="bmyZmvMGDNsNkP8Xa65y-1" vertex="1">
          <mxGeometry x="-142.5" y="-330" width="242.5" height="130" as="geometry" />
        </mxCell>
        <mxCell id="GGgMYoYCZhMItihsB0li-1" style="edgeStyle=elbowEdgeStyle;html=1;labelBackgroundColor=none;startArrow=ERmandOne;endArrow=ERoneToMany;fontFamily=Verdana;fontSize=12;align=left;fontStyle=1;fillColor=#f8cecc;strokeColor=#030101;entryX=0.5;entryY=0;entryDx=0;entryDy=0;elbow=vertical;exitX=0.5;exitY=1;exitDx=0;exitDy=0;" parent="bmyZmvMGDNsNkP8Xa65y-1" source="S5w8QTy3RacfOPkF_H0v-0" target="GGgMYoYCZhMItihsB0li-0" edge="1">
          <mxGeometry relative="1" as="geometry">
            <mxPoint x="-20.83" y="-290" as="sourcePoint" />
            <mxPoint x="-20.83" y="-200" as="targetPoint" />
          </mxGeometry>
        </mxCell>
        <mxCell id="UKYgUxv6gs8hcdsovIRL-0" value="&lt;div style=&quot;box-sizing: border-box ; width: 100% ; background: #e4e4e4 ; padding: 2px&quot;&gt;rent_reservations ( &lt;font color=&quot;#003366&quot;&gt;Reservaciones&lt;/font&gt;&amp;nbsp;)&amp;nbsp;&lt;/div&gt;&lt;table style=&quot;width: 100% ; font-size: 1em&quot; cellpadding=&quot;2&quot; cellspacing=&quot;0&quot;&gt;&lt;tbody&gt;&lt;tr&gt;&lt;td&gt;PK&lt;/td&gt;&lt;td&gt;reservation_id (&lt;font color=&quot;#003366&quot;&gt;Reservación ID&lt;/font&gt;)&lt;/td&gt;&lt;/tr&gt;&lt;tr&gt;&lt;td&gt;FK1&lt;/td&gt;&lt;td&gt;community_id ( &lt;font color=&quot;#003366&quot;&gt;Comunidad ID&lt;/font&gt;)&lt;/td&gt;&lt;/tr&gt;&lt;tr&gt;&lt;td&gt;FK2&lt;/td&gt;&lt;td&gt;vehicle_id (&amp;nbsp;&lt;font color=&quot;#003366&quot;&gt;Referencia ID&lt;/font&gt;)&lt;/td&gt;&lt;/tr&gt;&lt;tr&gt;&lt;td&gt;&lt;br&gt;&lt;/td&gt;&lt;td&gt;user_id&lt;br&gt;&lt;/td&gt;&lt;/tr&gt;&lt;tr&gt;&lt;td&gt;&lt;br&gt;&lt;/td&gt;&lt;td&gt;pick_date (&amp;nbsp;&lt;font color=&quot;#003366&quot;&gt;inicio reserva&lt;/font&gt;&amp;nbsp;)&lt;/td&gt;&lt;/tr&gt;&lt;tr&gt;&lt;td&gt;&lt;br&gt;&lt;/td&gt;&lt;td&gt;return_date (&lt;font color=&quot;#003366&quot;&gt;&amp;nbsp;final reserva&lt;/font&gt;&amp;nbsp;)&lt;br&gt;status&lt;br&gt;created_at&lt;br&gt;updated_at&amp;nbsp;&lt;br&gt;&lt;br&gt;&lt;br&gt;&lt;/td&gt;&lt;/tr&gt;&lt;/tbody&gt;&lt;/table&gt;" style="verticalAlign=top;align=left;overflow=fill;html=1;rounded=0;shadow=0;comic=0;labelBackgroundColor=none;strokeWidth=1;fontFamily=Verdana;fontSize=12" parent="bmyZmvMGDNsNkP8Xa65y-1" vertex="1">
          <mxGeometry x="-141.25" y="-90" width="240" height="170" as="geometry" />
        </mxCell>
        <mxCell id="VMP-y8VDBdLnTuXBqy2d-0" style="edgeStyle=elbowEdgeStyle;html=1;labelBackgroundColor=none;startArrow=ERmandOne;endArrow=ERoneToMany;fontFamily=Verdana;fontSize=12;align=left;fontStyle=1;fillColor=#f8cecc;strokeColor=#030101;entryX=0.5;entryY=1;entryDx=0;entryDy=0;elbow=vertical;exitX=0;exitY=0.5;exitDx=0;exitDy=0;" parent="bmyZmvMGDNsNkP8Xa65y-1" source="UKYgUxv6gs8hcdsovIRL-0" target="Nn9XOWeR_-566G98xo9r-0" edge="1">
          <mxGeometry relative="1" as="geometry">
            <mxPoint x="-140" y="75" as="sourcePoint" />
            <mxPoint x="-940" y="-900" as="targetPoint" />
            <Array as="points">
              <mxPoint x="-500" y="-5" />
            </Array>
          </mxGeometry>
        </mxCell>
        <mxCell id="iwUdLHAf3bPw_4m7kDpL-0" value="&lt;div style=&quot;box-sizing: border-box ; width: 100% ; background: #e4e4e4 ; padding: 2px&quot;&gt;communities ( Comunidades&lt;font color=&quot;#003366&quot;&gt;&amp;nbsp;&lt;/font&gt;)&lt;/div&gt;&lt;table style=&quot;width: 100% ; font-size: 1em&quot; cellpadding=&quot;2&quot; cellspacing=&quot;0&quot;&gt;&lt;tbody&gt;&lt;tr&gt;&lt;td&gt;PK&lt;/td&gt;&lt;td&gt;id&lt;/td&gt;&lt;/tr&gt;&lt;tr&gt;&lt;td&gt;FK1&lt;/td&gt;&lt;td&gt;name ( &lt;font color=&quot;#003366&quot;&gt;compañia ID&lt;/font&gt;)&lt;/td&gt;&lt;/tr&gt;&lt;tr&gt;&lt;td&gt;&lt;/td&gt;&lt;td&gt;created_at&lt;br&gt;&lt;/td&gt;&lt;/tr&gt;&lt;tr&gt;&lt;td&gt;&lt;br&gt;&lt;/td&gt;&lt;td&gt;updated_at&lt;br&gt;&lt;br&gt;&lt;/td&gt;&lt;/tr&gt;&lt;/tbody&gt;&lt;/table&gt;" style="verticalAlign=top;align=left;overflow=fill;html=1;rounded=0;shadow=0;comic=0;labelBackgroundColor=none;strokeWidth=1;fontFamily=Verdana;fontSize=12" parent="bmyZmvMGDNsNkP8Xa65y-1" vertex="1">
          <mxGeometry x="-940" y="-1250" width="320" height="100" as="geometry" />
        </mxCell>
        <mxCell id="iwUdLHAf3bPw_4m7kDpL-1" style="edgeStyle=elbowEdgeStyle;html=1;labelBackgroundColor=none;startArrow=ERmany;endArrow=ERmandOne;fontFamily=Verdana;fontSize=12;align=left;fontStyle=1;fillColor=#f8cecc;strokeColor=#030101;exitX=0;exitY=0.75;exitDx=0;exitDy=0;entryX=0.5;entryY=1;entryDx=0;entryDy=0;elbow=vertical;startFill=0;endFill=0;" parent="bmyZmvMGDNsNkP8Xa65y-1" source="UKYgUxv6gs8hcdsovIRL-0" target="iwUdLHAf3bPw_4m7kDpL-0" edge="1">
          <mxGeometry relative="1" as="geometry">
            <mxPoint x="-142.5" y="92.5" as="sourcePoint" />
            <mxPoint x="-880" y="-932.5" as="targetPoint" />
            <Array as="points">
              <mxPoint x="-640" y="38" />
            </Array>
          </mxGeometry>
        </mxCell>
        <mxCell id="w6p_kXDoABb4uAm1ILQg-0" style="edgeStyle=elbowEdgeStyle;html=1;labelBackgroundColor=none;startArrow=ERmandOne;endArrow=ERoneToMany;fontFamily=Verdana;fontSize=12;align=left;fontStyle=1;fillColor=#f8cecc;strokeColor=#030101;entryX=0.5;entryY=0;entryDx=0;entryDy=0;elbow=vertical;exitX=0.5;exitY=1;exitDx=0;exitDy=0;" parent="bmyZmvMGDNsNkP8Xa65y-1" source="GGgMYoYCZhMItihsB0li-0" target="UKYgUxv6gs8hcdsovIRL-0" edge="1">
          <mxGeometry relative="1" as="geometry">
            <mxPoint x="-18.21" y="-110" as="sourcePoint" />
            <mxPoint x="-18.21" y="-40" as="targetPoint" />
          </mxGeometry>
        </mxCell>
      </root>
    </mxGraphModel>
  </diagram>
  <diagram id="bVBRphtPBTjHmDpzfctf" name="Page-3">
    <mxGraphModel dx="2440" dy="2858" grid="1" gridSize="10" guides="1" tooltips="1" connect="1" arrows="1" fold="1" page="1" pageScale="1" pageWidth="827" pageHeight="1169" math="0" shadow="0">
      <root>
        <mxCell id="ura1nviIpaKY_g9N56sX-0" />
        <mxCell id="ura1nviIpaKY_g9N56sX-1" parent="ura1nviIpaKY_g9N56sX-0" />
        <mxCell id="YpuFSdE0raS1cx2J4Z-s-0" value="&lt;div style=&quot;box-sizing: border-box ; width: 100% ; background: #e4e4e4 ; padding: 2px&quot;&gt;rent_companies ( &lt;font color=&quot;#0066cc&quot;&gt;compañias&lt;/font&gt; )&lt;/div&gt;&lt;table style=&quot;width: 100% ; font-size: 1em&quot; cellpadding=&quot;2&quot; cellspacing=&quot;0&quot;&gt;&lt;tbody&gt;&lt;tr&gt;&lt;td&gt;PK&lt;/td&gt;&lt;td&gt;company_id&lt;/td&gt;&lt;/tr&gt;&lt;tr&gt;&lt;td&gt;&lt;br&gt;&lt;/td&gt;&lt;td&gt;name&lt;/td&gt;&lt;/tr&gt;&lt;tr&gt;&lt;td&gt;&lt;/td&gt;&lt;td&gt;email&lt;br&gt;address&lt;br&gt;logo&lt;br&gt;phone&lt;br&gt;steps&lt;br&gt;created_at&lt;br&gt;updated_at&lt;br&gt;&lt;br&gt;&lt;/td&gt;&lt;/tr&gt;&lt;/tbody&gt;&lt;/table&gt;" style="verticalAlign=top;align=left;overflow=fill;html=1;rounded=0;shadow=0;comic=0;labelBackgroundColor=none;strokeWidth=1;fontFamily=Verdana;fontSize=12" vertex="1" parent="ura1nviIpaKY_g9N56sX-1">
          <mxGeometry x="-110" y="-1245" width="180" height="160" as="geometry" />
        </mxCell>
        <mxCell id="YpuFSdE0raS1cx2J4Z-s-3" value="&lt;div style=&quot;box-sizing: border-box ; width: 100% ; background: #e4e4e4 ; padding: 2px&quot;&gt;rent_office_restrictions ( &lt;font color=&quot;#003366&quot;&gt;Restricciones de&amp;nbsp;oficina&lt;/font&gt;&amp;nbsp;)&amp;nbsp;&lt;/div&gt;&lt;table style=&quot;width: 100% ; font-size: 1em&quot; cellpadding=&quot;2&quot; cellspacing=&quot;0&quot;&gt;&lt;tbody&gt;&lt;tr&gt;&lt;td&gt;PK&lt;/td&gt;&lt;td&gt;restricciones_id (&lt;font color=&quot;#003366&quot;&gt;Restriccion ID&lt;/font&gt;)&lt;/td&gt;&lt;/tr&gt;&lt;tr&gt;&lt;td&gt;&lt;br&gt;&lt;/td&gt;&lt;td&gt;parameter_id (&amp;nbsp;&lt;font color=&quot;#003366&quot;&gt;Restricción&amp;nbsp;ID&lt;/font&gt;)&lt;br&gt;value&lt;/td&gt;&lt;/tr&gt;&lt;tr&gt;&lt;td&gt;&lt;br&gt;&lt;/td&gt;&lt;td&gt;created_at &amp;nbsp;&lt;/td&gt;&lt;/tr&gt;&lt;tr&gt;&lt;td&gt;&lt;br&gt;&lt;/td&gt;&lt;td&gt;updated_at&amp;nbsp;&lt;br&gt;&lt;/td&gt;&lt;/tr&gt;&lt;tr&gt;&lt;td&gt;&lt;br&gt;&lt;/td&gt;&lt;td&gt;&amp;nbsp;&amp;nbsp;&lt;br&gt;&lt;/td&gt;&lt;/tr&gt;&lt;tr&gt;&lt;td&gt;&lt;br&gt;&lt;/td&gt;&lt;td&gt;&lt;br&gt;&lt;br&gt;&lt;/td&gt;&lt;/tr&gt;&lt;/tbody&gt;&lt;/table&gt;" style="verticalAlign=top;align=left;overflow=fill;html=1;rounded=0;shadow=0;comic=0;labelBackgroundColor=none;strokeWidth=1;fontFamily=Verdana;fontSize=12" vertex="1" parent="ura1nviIpaKY_g9N56sX-1">
          <mxGeometry x="-690" y="-1350" width="360" height="110" as="geometry" />
        </mxCell>
        <mxCell id="YpuFSdE0raS1cx2J4Z-s-4" value="&lt;div style=&quot;box-sizing: border-box ; width: 100% ; background: #e4e4e4 ; padding: 2px&quot;&gt;users&lt;/div&gt;&lt;table style=&quot;width: 100% ; font-size: 1em&quot; cellpadding=&quot;2&quot; cellspacing=&quot;0&quot;&gt;&lt;tbody&gt;&lt;tr&gt;&lt;td&gt;PK&lt;/td&gt;&lt;td&gt;user_id&lt;/td&gt;&lt;/tr&gt;&lt;tr&gt;&lt;td&gt;FK1&lt;/td&gt;&lt;td&gt;&lt;br&gt;&lt;/td&gt;&lt;/tr&gt;&lt;tr&gt;&lt;td&gt;&lt;/td&gt;&lt;td&gt;&lt;br&gt;&lt;/td&gt;&lt;/tr&gt;&lt;/tbody&gt;&lt;/table&gt;" style="verticalAlign=top;align=left;overflow=fill;html=1;rounded=0;shadow=0;comic=0;labelBackgroundColor=none;strokeWidth=1;fontFamily=Verdana;fontSize=12" vertex="1" parent="ura1nviIpaKY_g9N56sX-1">
          <mxGeometry x="-960" y="-1245" width="170" height="70" as="geometry" />
        </mxCell>
        <mxCell id="YpuFSdE0raS1cx2J4Z-s-6" style="edgeStyle=elbowEdgeStyle;html=1;labelBackgroundColor=none;startArrow=ERmandOne;endArrow=ERmandOne;fontFamily=Verdana;fontSize=12;align=left;fontStyle=1;fillColor=#f8cecc;strokeColor=#030101;elbow=vertical;endFill=0;exitX=0;exitY=0.25;exitDx=0;exitDy=0;" edge="1" parent="ura1nviIpaKY_g9N56sX-1" source="YpuFSdE0raS1cx2J4Z-s-7">
          <mxGeometry relative="1" as="geometry">
            <mxPoint x="-120" y="-1230" as="sourcePoint" />
            <mxPoint x="-510" y="-1240" as="targetPoint" />
            <Array as="points">
              <mxPoint x="-350" y="-925" />
            </Array>
          </mxGeometry>
        </mxCell>
        <mxCell id="YpuFSdE0raS1cx2J4Z-s-7" value="&lt;div style=&quot;box-sizing: border-box ; width: 100% ; background: #e4e4e4 ; padding: 2px&quot;&gt;rent_offices ( &lt;font color=&quot;#003366&quot;&gt;Sedes&lt;/font&gt; )&lt;/div&gt;&lt;table style=&quot;width: 100% ; font-size: 1em&quot; cellpadding=&quot;2&quot; cellspacing=&quot;0&quot;&gt;&lt;tbody&gt;&lt;tr&gt;&lt;td&gt;PK&lt;/td&gt;&lt;td&gt;office_id&amp;nbsp;&lt;/td&gt;&lt;/tr&gt;&lt;tr&gt;&lt;td&gt;FK1&lt;/td&gt;&lt;td&gt;restriction_id (&lt;font color=&quot;#003366&quot;&gt;restriction&amp;nbsp;ID&lt;/font&gt;)&lt;/td&gt;&lt;/tr&gt;&lt;tr&gt;&lt;td&gt;&lt;/td&gt;&lt;td&gt;name&lt;br&gt;phone&lt;br&gt;location_gps&lt;br&gt;location_text&lt;br&gt;created_at&lt;br&gt;updated_at&lt;/td&gt;&lt;/tr&gt;&lt;/tbody&gt;&lt;/table&gt;" style="verticalAlign=top;align=left;overflow=fill;html=1;rounded=0;shadow=0;comic=0;labelBackgroundColor=none;strokeWidth=1;fontFamily=Verdana;fontSize=12" vertex="1" parent="ura1nviIpaKY_g9N56sX-1">
          <mxGeometry x="-125" y="-960" width="210" height="140" as="geometry" />
        </mxCell>
        <mxCell id="YpuFSdE0raS1cx2J4Z-s-8" style="edgeStyle=elbowEdgeStyle;html=1;labelBackgroundColor=none;startArrow=ERmandOne;endArrow=ERoneToMany;fontFamily=Verdana;fontSize=12;align=left;exitX=0.5;exitY=1;exitDx=0;exitDy=0;fontStyle=1;fillColor=#f8cecc;strokeColor=#030101;entryX=0.5;entryY=0;entryDx=0;entryDy=0;elbow=vertical;" edge="1" parent="ura1nviIpaKY_g9N56sX-1" source="YpuFSdE0raS1cx2J4Z-s-0" target="YpuFSdE0raS1cx2J4Z-s-7">
          <mxGeometry relative="1" as="geometry">
            <mxPoint x="320" y="-1100" as="sourcePoint" />
            <mxPoint x="-270" y="-950" as="targetPoint" />
          </mxGeometry>
        </mxCell>
        <mxCell id="YpuFSdE0raS1cx2J4Z-s-9" value="&lt;div style=&quot;box-sizing: border-box ; width: 100% ; background: #e4e4e4 ; padding: 2px&quot;&gt;rent_modes ( &lt;font color=&quot;#003366&quot;&gt;Tipo de reserva &lt;/font&gt;)&lt;/div&gt;&lt;table style=&quot;width: 100% ; font-size: 1em&quot; cellpadding=&quot;2&quot; cellspacing=&quot;0&quot;&gt;&lt;tbody&gt;&lt;tr&gt;&lt;td&gt;PK&lt;/td&gt;&lt;td&gt;mode_id&lt;/td&gt;&lt;/tr&gt;&lt;tr&gt;&lt;td&gt;FK1&lt;/td&gt;&lt;td&gt;office_id ( Sede&lt;font color=&quot;#003366&quot;&gt;&amp;nbsp;ID&lt;/font&gt;)&lt;/td&gt;&lt;/tr&gt;&lt;tr&gt;&lt;td&gt;&lt;/td&gt;&lt;td&gt;mode (&lt;font color=&quot;#003366&quot;&gt;&amp;nbsp;&lt;/font&gt;parqueadero&lt;font color=&quot;#003366&quot;&gt; - parking&lt;/font&gt;) (office -&lt;font color=&quot;#003366&quot;&gt;puesto de trabajo)&lt;/font&gt;&lt;/td&gt;&lt;/tr&gt;&lt;tr&gt;&lt;td&gt;&lt;br&gt;&lt;/td&gt;&lt;td&gt;created_at&lt;br&gt;updated_at&lt;/td&gt;&lt;/tr&gt;&lt;/tbody&gt;&lt;/table&gt;" style="verticalAlign=top;align=left;overflow=fill;html=1;rounded=0;shadow=0;comic=0;labelBackgroundColor=none;strokeWidth=1;fontFamily=Verdana;fontSize=12" vertex="1" parent="ura1nviIpaKY_g9N56sX-1">
          <mxGeometry x="-215" y="-710" width="390" height="110" as="geometry" />
        </mxCell>
        <mxCell id="YpuFSdE0raS1cx2J4Z-s-10" style="edgeStyle=elbowEdgeStyle;html=1;labelBackgroundColor=none;startArrow=ERmandOne;endArrow=ERoneToMany;fontFamily=Verdana;fontSize=12;align=left;fontStyle=1;fillColor=#f8cecc;strokeColor=#030101;entryX=0.5;entryY=0;entryDx=0;entryDy=0;elbow=vertical;exitX=0.5;exitY=1;exitDx=0;exitDy=0;" edge="1" parent="ura1nviIpaKY_g9N56sX-1" source="YpuFSdE0raS1cx2J4Z-s-7" target="YpuFSdE0raS1cx2J4Z-s-9">
          <mxGeometry relative="1" as="geometry">
            <mxPoint x="50" y="-790" as="sourcePoint" />
            <mxPoint y="-720" as="targetPoint" />
          </mxGeometry>
        </mxCell>
        <mxCell id="YpuFSdE0raS1cx2J4Z-s-11" value="&lt;div style=&quot;box-sizing: border-box ; width: 100% ; background: #e4e4e4 ; padding: 2px&quot;&gt;rent_models ( &lt;font color=&quot;#003366&quot;&gt;Pisos&lt;/font&gt; )&lt;/div&gt;&lt;table style=&quot;width: 100% ; font-size: 1em&quot; cellpadding=&quot;2&quot; cellspacing=&quot;0&quot;&gt;&lt;tbody&gt;&lt;tr&gt;&lt;td&gt;PK&lt;/td&gt;&lt;td&gt;model_id (&lt;font color=&quot;#003366&quot;&gt;Piso Id&lt;/font&gt;)&lt;/td&gt;&lt;/tr&gt;&lt;tr&gt;&lt;td&gt;FK1&lt;/td&gt;&lt;td&gt;mode_id ( &lt;font color=&quot;#003366&quot;&gt;Tipo reserva ID&lt;/font&gt;)&lt;/td&gt;&lt;/tr&gt;&lt;tr&gt;&lt;td&gt;&lt;/td&gt;&lt;td&gt;&lt;br&gt;&lt;/td&gt;&lt;/tr&gt;&lt;tr&gt;&lt;td&gt;&lt;br&gt;&lt;/td&gt;&lt;td&gt;model ( &lt;font color=&quot;#003366&quot;&gt;nombre de piso&lt;/font&gt; )&lt;br&gt;image&lt;br&gt;brand ( nulo)&lt;br&gt;year ( nulo )&lt;br&gt;note ( nulo )&lt;br&gt;createed_at&amp;nbsp;&lt;br&gt;updated_at&lt;/td&gt;&lt;/tr&gt;&lt;/tbody&gt;&lt;/table&gt;&amp;nbsp;" style="verticalAlign=top;align=left;overflow=fill;html=1;rounded=0;shadow=0;comic=0;labelBackgroundColor=none;strokeWidth=1;fontFamily=Verdana;fontSize=12" vertex="1" parent="ura1nviIpaKY_g9N56sX-1">
          <mxGeometry x="-121.25" y="-510" width="202.5" height="180" as="geometry" />
        </mxCell>
        <mxCell id="YpuFSdE0raS1cx2J4Z-s-12" style="edgeStyle=elbowEdgeStyle;html=1;labelBackgroundColor=none;startArrow=ERmandOne;endArrow=ERoneToMany;fontFamily=Verdana;fontSize=12;align=left;fontStyle=1;fillColor=#f8cecc;strokeColor=#030101;entryX=0.5;entryY=0;entryDx=0;entryDy=0;elbow=vertical;exitX=0.5;exitY=1;exitDx=0;exitDy=0;" edge="1" parent="ura1nviIpaKY_g9N56sX-1" source="YpuFSdE0raS1cx2J4Z-s-9" target="YpuFSdE0raS1cx2J4Z-s-11">
          <mxGeometry relative="1" as="geometry">
            <mxPoint x="-20.83" y="-580" as="sourcePoint" />
            <mxPoint x="-20.659999999999997" y="-460" as="targetPoint" />
          </mxGeometry>
        </mxCell>
        <mxCell id="YpuFSdE0raS1cx2J4Z-s-13" value="&lt;div style=&quot;box-sizing: border-box ; width: 100% ; background: #e4e4e4 ; padding: 2px&quot;&gt;rent_vehicles ( &lt;font color=&quot;#003366&quot;&gt;Referencias&lt;/font&gt; )&amp;nbsp;&lt;/div&gt;&lt;table style=&quot;width: 100% ; font-size: 1em&quot; cellpadding=&quot;2&quot; cellspacing=&quot;0&quot;&gt;&lt;tbody&gt;&lt;tr&gt;&lt;td&gt;PK&lt;/td&gt;&lt;td&gt;vehicle_id (&lt;font color=&quot;#003366&quot;&gt;referencia ID&lt;/font&gt;)&lt;/td&gt;&lt;/tr&gt;&lt;tr&gt;&lt;td&gt;FK1&lt;/td&gt;&lt;td&gt;model_id&amp;nbsp;( &lt;font color=&quot;#003366&quot;&gt;Piso ID&lt;/font&gt;)&lt;/td&gt;&lt;/tr&gt;&lt;tr&gt;&lt;td&gt;FK2&lt;/td&gt;&lt;td&gt;number_plate&amp;nbsp;( &lt;font color=&quot;#003366&quot;&gt;nombre referencia&lt;/font&gt;)&amp;nbsp;&lt;/td&gt;&lt;/tr&gt;&lt;tr&gt;&lt;td&gt;&lt;br&gt;&lt;/td&gt;&lt;td&gt;number_plate ( &lt;font color=&quot;#003366&quot;&gt;nombre referencia&lt;/font&gt;)&lt;br&gt;&lt;/td&gt;&lt;/tr&gt;&lt;tr&gt;&lt;td&gt;&lt;br&gt;&lt;/td&gt;&lt;td&gt;status&amp;nbsp;&amp;nbsp;&lt;br&gt;&lt;/td&gt;&lt;/tr&gt;&lt;tr&gt;&lt;td&gt;&lt;br&gt;&lt;/td&gt;&lt;td&gt;created_at&lt;br&gt;updated_at&lt;/td&gt;&lt;/tr&gt;&lt;/tbody&gt;&lt;/table&gt;" style="verticalAlign=top;align=left;overflow=fill;html=1;rounded=0;shadow=0;comic=0;labelBackgroundColor=none;strokeWidth=1;fontFamily=Verdana;fontSize=12" vertex="1" parent="ura1nviIpaKY_g9N56sX-1">
          <mxGeometry x="-142.5" y="-260" width="245" height="140" as="geometry" />
        </mxCell>
        <mxCell id="YpuFSdE0raS1cx2J4Z-s-14" style="edgeStyle=elbowEdgeStyle;html=1;labelBackgroundColor=none;startArrow=ERmandOne;endArrow=ERoneToMany;fontFamily=Verdana;fontSize=12;align=left;fontStyle=1;fillColor=#f8cecc;strokeColor=#030101;entryX=0.5;entryY=0;entryDx=0;entryDy=0;elbow=vertical;exitX=0.5;exitY=1;exitDx=0;exitDy=0;" edge="1" parent="ura1nviIpaKY_g9N56sX-1" source="YpuFSdE0raS1cx2J4Z-s-11" target="YpuFSdE0raS1cx2J4Z-s-13">
          <mxGeometry relative="1" as="geometry">
            <mxPoint x="-20.83" y="-290" as="sourcePoint" />
            <mxPoint x="-20.83" y="-200" as="targetPoint" />
          </mxGeometry>
        </mxCell>
        <mxCell id="YpuFSdE0raS1cx2J4Z-s-15" value="&lt;div style=&quot;box-sizing: border-box ; width: 100% ; background: #e4e4e4 ; padding: 2px&quot;&gt;rent_reservations ( &lt;font color=&quot;#003366&quot;&gt;Reservaciones&lt;/font&gt;&amp;nbsp;)&amp;nbsp;&lt;/div&gt;&lt;table style=&quot;width: 100% ; font-size: 1em&quot; cellpadding=&quot;2&quot; cellspacing=&quot;0&quot;&gt;&lt;tbody&gt;&lt;tr&gt;&lt;td&gt;PK&lt;/td&gt;&lt;td&gt;reservation_id (&lt;font color=&quot;#003366&quot;&gt;Reservación ID&lt;/font&gt;)&lt;/td&gt;&lt;/tr&gt;&lt;tr&gt;&lt;td&gt;FK1&lt;/td&gt;&lt;td&gt;community_id ( &lt;font color=&quot;#003366&quot;&gt;Comunidad ID&lt;/font&gt;)&lt;/td&gt;&lt;/tr&gt;&lt;tr&gt;&lt;td&gt;FK2&lt;/td&gt;&lt;td&gt;vehicle_id (&amp;nbsp;&lt;font color=&quot;#003366&quot;&gt;Referencia ID&lt;/font&gt;)&lt;/td&gt;&lt;/tr&gt;&lt;tr&gt;&lt;td&gt;&lt;br&gt;&lt;/td&gt;&lt;td&gt;user_id&lt;br&gt;&lt;/td&gt;&lt;/tr&gt;&lt;tr&gt;&lt;td&gt;&lt;br&gt;&lt;/td&gt;&lt;td&gt;pick_date (&amp;nbsp;&lt;font color=&quot;#003366&quot;&gt;inicio reserva&lt;/font&gt;&amp;nbsp;)&lt;/td&gt;&lt;/tr&gt;&lt;tr&gt;&lt;td&gt;&lt;br&gt;&lt;/td&gt;&lt;td&gt;return_date (&lt;font color=&quot;#003366&quot;&gt;&amp;nbsp;final reserva&lt;/font&gt;&amp;nbsp;)&lt;br&gt;status&lt;br&gt;created_at&lt;br&gt;updated_at&amp;nbsp;&lt;br&gt;&lt;br&gt;&lt;br&gt;&lt;/td&gt;&lt;/tr&gt;&lt;/tbody&gt;&lt;/table&gt;" style="verticalAlign=top;align=left;overflow=fill;html=1;rounded=0;shadow=0;comic=0;labelBackgroundColor=none;strokeWidth=1;fontFamily=Verdana;fontSize=12" vertex="1" parent="ura1nviIpaKY_g9N56sX-1">
          <mxGeometry x="-140" y="-10" width="240" height="170" as="geometry" />
        </mxCell>
        <mxCell id="YpuFSdE0raS1cx2J4Z-s-16" style="edgeStyle=elbowEdgeStyle;html=1;labelBackgroundColor=none;startArrow=ERmandOne;endArrow=ERoneToMany;fontFamily=Verdana;fontSize=12;align=left;fontStyle=1;fillColor=#f8cecc;strokeColor=#030101;entryX=0.5;entryY=1;entryDx=0;entryDy=0;elbow=vertical;exitX=0;exitY=0.5;exitDx=0;exitDy=0;" edge="1" parent="ura1nviIpaKY_g9N56sX-1" source="YpuFSdE0raS1cx2J4Z-s-15" target="YpuFSdE0raS1cx2J4Z-s-4">
          <mxGeometry relative="1" as="geometry">
            <mxPoint x="-140" y="75" as="sourcePoint" />
            <mxPoint x="-940" y="-900" as="targetPoint" />
            <Array as="points">
              <mxPoint x="-500" y="75" />
            </Array>
          </mxGeometry>
        </mxCell>
        <mxCell id="YpuFSdE0raS1cx2J4Z-s-17" value="&lt;div style=&quot;box-sizing: border-box ; width: 100% ; background: #e4e4e4 ; padding: 2px&quot;&gt;communities ( Comunidades&lt;font color=&quot;#003366&quot;&gt;&amp;nbsp;&lt;/font&gt;)&lt;/div&gt;&lt;table style=&quot;width: 100% ; font-size: 1em&quot; cellpadding=&quot;2&quot; cellspacing=&quot;0&quot;&gt;&lt;tbody&gt;&lt;tr&gt;&lt;td&gt;PK&lt;/td&gt;&lt;td&gt;id&lt;/td&gt;&lt;/tr&gt;&lt;tr&gt;&lt;td&gt;FK1&lt;/td&gt;&lt;td&gt;name ( &lt;font color=&quot;#003366&quot;&gt;compañia ID&lt;/font&gt;)&lt;/td&gt;&lt;/tr&gt;&lt;tr&gt;&lt;td&gt;&lt;/td&gt;&lt;td&gt;created_at&lt;br&gt;&lt;/td&gt;&lt;/tr&gt;&lt;tr&gt;&lt;td&gt;&lt;br&gt;&lt;/td&gt;&lt;td&gt;updated_at&lt;br&gt;&lt;br&gt;&lt;/td&gt;&lt;/tr&gt;&lt;/tbody&gt;&lt;/table&gt;" style="verticalAlign=top;align=left;overflow=fill;html=1;rounded=0;shadow=0;comic=0;labelBackgroundColor=none;strokeWidth=1;fontFamily=Verdana;fontSize=12" vertex="1" parent="ura1nviIpaKY_g9N56sX-1">
          <mxGeometry x="-1320" y="-1240" width="320" height="100" as="geometry" />
        </mxCell>
        <mxCell id="YpuFSdE0raS1cx2J4Z-s-18" style="edgeStyle=elbowEdgeStyle;html=1;labelBackgroundColor=none;startArrow=ERmany;endArrow=ERmandOne;fontFamily=Verdana;fontSize=12;align=left;fontStyle=1;fillColor=#f8cecc;strokeColor=#030101;exitX=0;exitY=0.75;exitDx=0;exitDy=0;entryX=0.5;entryY=1;entryDx=0;entryDy=0;elbow=vertical;startFill=0;endFill=0;" edge="1" parent="ura1nviIpaKY_g9N56sX-1" source="YpuFSdE0raS1cx2J4Z-s-15" target="YpuFSdE0raS1cx2J4Z-s-17">
          <mxGeometry relative="1" as="geometry">
            <mxPoint x="-142.5" y="92.5" as="sourcePoint" />
            <mxPoint x="-880" y="-932.5" as="targetPoint" />
            <Array as="points">
              <mxPoint x="-640" y="118" />
            </Array>
          </mxGeometry>
        </mxCell>
        <mxCell id="YpuFSdE0raS1cx2J4Z-s-19" style="edgeStyle=elbowEdgeStyle;html=1;labelBackgroundColor=none;startArrow=ERmandOne;endArrow=ERoneToMany;fontFamily=Verdana;fontSize=12;align=left;fontStyle=1;fillColor=#f8cecc;strokeColor=#030101;entryX=0.5;entryY=0;entryDx=0;entryDy=0;elbow=vertical;exitX=0.5;exitY=1;exitDx=0;exitDy=0;" edge="1" parent="ura1nviIpaKY_g9N56sX-1" source="YpuFSdE0raS1cx2J4Z-s-13" target="YpuFSdE0raS1cx2J4Z-s-15">
          <mxGeometry relative="1" as="geometry">
            <mxPoint x="-18.21" y="-110" as="sourcePoint" />
            <mxPoint x="-18.21" y="-40" as="targetPoint" />
          </mxGeometry>
        </mxCell>
      </root>
    </mxGraphModel>
  </diagram>
</mxfile>
